<?xml version="1.0" encoding="UTF-8"?>
<svg width="400px" height="485px" viewBox="0 0 400 485" version="1.1" xmlns="http://www.w3.org/2000/svg" xmlns:xlink="http://www.w3.org/1999/xlink">
    <title>double-data-desktop</title>
    <defs>
        <rect id="path-1" x="0" y="0" width="400" height="485" rx="10"></rect>
    </defs>
    <g id="24th-Aug" stroke="none" stroke-width="1" fill="none" fill-rule="evenodd">
        <g id="double-data-desktop">
            <g id="penguin-eng">
                <mask id="mask-2" fill="white">
                    <use xlink:href="#path-1"></use>
                </mask>
                <use id="Mask" fill="#EE2737" xlink:href="#path-1"></use>
                <g id="Group-11" mask="url(#mask-2)">
                    <g transform="translate(66.000000, 137.000000)">
                        <path d="M398.1232,95.50784 L398.1232,263.35504 C398.1232,275.55744 388.2304,285.45024 376.0272,285.45024 L22.0952,285.45024 C9.892,285.45024 1.8189894e-13,275.55744 1.8189894e-13,263.35504 L1.8189894e-13,95.50784 C1.8189894e-13,83.30464 9.892,73.41184 22.0952,73.41184 L376.0272,73.41184 C388.2304,73.41184 398.1232,83.30464 398.1232,95.50784" id="Fill-155" fill="#2E3048"></path>
                        <path d="M31.52832,155.54064 L31.52832,203.32144 C31.52832,205.84784 29.48032,207.89504 26.95392,207.89504 C24.42752,207.89504 22.37952,205.84784 22.37952,203.32144 L22.37952,155.54064 C22.37952,153.01424 24.42752,150.96624 26.95392,150.96624 C29.48032,150.96624 31.52832,153.01424 31.52832,155.54064" id="Fill-157" fill="#FFC600"></path>
                        <path d="M252.022,135.55864 C252.022,163.97144 228.9884,187.00504 200.5756,187.00504 C172.1628,187.00504 149.1292,163.97144 149.1292,135.55864 C149.1292,107.14504 172.1628,84.11224 200.5756,84.11224 C228.9884,84.11224 252.022,107.14504 252.022,135.55864" id="Fill-161" fill="#FFC600"></path>
                        <path d="M200.86424,129.32112 C197.10664,129.32112 193.46984,129.28752 189.83464,129.34032 C188.70104,129.35712 188.26664,129.00112 188.29384,127.83232 C188.37144,124.51152 187.88584,124.76032 191.41144,124.76512 C194.36424,124.76912 197.31624,124.76592 200.45464,124.76592 C199.35224,122.82752 197.64424,122.21872 195.77544,121.89072 C193.79064,121.54192 191.78264,121.66192 189.78584,121.69232 C188.71864,121.70912 188.21384,121.37712 188.30104,120.24912 C188.36504,119.41312 188.35704,118.56672 188.30264,117.72912 C188.23544,116.69632 188.64424,116.30592 189.69064,116.31872 C193.13304,116.35952 196.57544,116.33392 200.01864,116.33392 C203.82184,116.33392 207.62424,116.35872 211.42744,116.317649 C212.46904,116.30592 212.85784,116.69072 212.84344,117.71952 C212.79304,121.18992 213.22104,120.87072 209.68904,120.87152 C208.38344,120.87232 207.07864,120.87152 205.63784,120.87152 C206.32904,122.01792 206.92584,123.04912 207.15704,124.23072 C207.26024,124.75792 207.60904,124.77952 208.04184,124.77232 C209.24264,124.75232 210.44344,124.77472 211.64424,124.76272 C212.48904,124.75392 212.87384,125.11632 212.86024,125.99392 C212.79944,129.81152 213.32264,129.29712 209.68824,129.31872 C207.57304,129.33152 207.59384,129.32832 206.86264,131.34672 C205.34344,135.53872 202.04904,137.52272 197.92904,138.45632 C197.46664,138.56112 196.99624,138.62992 196.40424,138.73872 C198.01784,140.57232 199.59304,142.31232 201.11144,144.10112 C203.62264,147.05792 206.09144,150.04992 208.59224,153.01552 C208.92184,153.40592 209.20024,153.78112 208.94904,154.29472 C208.72184,154.76032 208.27384,154.79072 207.81544,154.78832 C206.29464,154.78112 204.77224,154.75712 203.25304,154.79872 C202.60184,154.81712 202.21944,154.49712 201.84664,154.04992 C197.59304,148.95072 193.28664,143.89712 188.74024,139.05392 C188.13944,138.41312 188.32664,137.71472 188.32504,137.02912 C188.31704,133.63872 187.88664,133.85312 191.46904,133.89232 C193.43944,133.91392 195.39544,133.87072 197.25064,133.12352 C198.98184,132.42672 200.29704,131.30352 200.86424,129.32112" id="Fill-163" fill="#2E3048"></path>
                        <path d="M308.79232,43.1856 C308.79232,67.036 289.45712,86.3712 265.60672,86.3712 C241.75552,86.3712 222.42032,67.036 222.42032,43.1856 C222.42032,19.3352 241.75552,0 265.60672,0 C289.45712,0 308.79232,19.3352 308.79232,43.1856" id="Fill-165" fill="#FFC600"></path>
                        <path d="M265.84856,37.94968 C262.69416,37.94968 259.64136,37.92168 256.59016,37.96648 C255.63816,37.98008 255.27416,37.68088 255.29656,36.70008 C255.36136,33.91208 254.95416,34.12088 257.91336,34.12488 C260.39176,34.12808 262.87016,34.12568 265.50536,34.12568 C264.57976,32.49928 263.14536,31.98728 261.57656,31.71208 C259.91096,31.41928 258.22536,31.52008 256.54856,31.54648 C255.65256,31.56008 255.22936,31.28168 255.30216,30.33368 C255.35656,29.63288 255.34936,28.92168 255.30376,28.21928 C255.24696,27.35208 255.59096,27.02408 256.46936,27.034241 C259.35816,27.06968 262.24856,27.04808 265.13896,27.04808 C268.33096,27.04808 271.52376,27.06888 274.71576,27.034241 C275.59016,27.02488 275.91656,27.34728 275.90376,28.21128 C275.86216,31.12408 276.22136,30.85608 273.25656,30.85688 C272.16056,30.85768 271.06536,30.85688 269.85576,30.85688 C270.43576,31.81848 270.93736,32.68488 271.13176,33.67688 C271.21816,34.11928 271.51016,34.13688 271.87336,34.13128 C272.88136,34.11528 273.89016,34.13288 274.89816,34.12328 C275.60696,34.11608 275.93016,34.42008 275.91816,35.15688 C275.86696,38.36168 276.30616,37.92968 273.25576,37.94808 C271.48056,37.95848 271.49736,37.95608 270.88376,39.64968 C269.60856,43.16888 266.84376,44.83448 263.38456,45.61768 C262.99656,45.70568 262.60136,45.76408 262.10456,45.85528 C263.45896,47.39448 264.78136,48.85528 266.05656,50.35608 C268.16376,52.83848 270.23656,55.35048 272.33576,57.83928 C272.61256,58.16728 272.84616,58.48328 272.63576,58.91368 C272.44456,59.30408 272.06856,59.32968 271.68376,59.32808 C270.40696,59.32168 269.12936,59.30168 267.85336,59.33688 C267.30696,59.35128 266.98616,59.08328 266.67336,58.70808 C263.10216,54.42728 259.48776,50.18488 255.67176,46.11928 C255.16696,45.58248 255.32376,44.99608 255.32296,44.42008 C255.31576,41.57448 254.95416,41.75368 257.96216,41.78728 C259.61576,41.80488 261.25816,41.76888 262.81496,41.14168 C264.26856,40.55608 265.37256,39.61368 265.84856,37.94968" id="Fill-167" fill="#2E3048"></path>
                        <path d="M182.08608,43.1856 C182.08608,67.036 162.75088,86.3712 138.90048,86.3712 C115.04928,86.3712 95.71408,67.036 95.71408,43.1856 C95.71408,19.3352 115.04928,0 138.90048,0 C162.75088,0 182.08608,19.3352 182.08608,43.1856" id="Fill-169" fill="#FFC600"></path>
                        <path d="M139.14232,37.94968 C135.98792,37.94968 132.93512,37.92168 129.88392,37.96648 C128.93192,37.98008 128.56792,37.68088 128.59032,36.70008 C128.65512,33.91208 128.24792,34.12088 131.20712,34.12488 C133.68552,34.12808 136.16392,34.12568 138.79912,34.12568 C137.87352,32.49928 136.43912,31.98728 134.87032,31.71208 C133.20472,31.41928 131.51912,31.52008 129.84232,31.54648 C128.94632,31.56008 128.52312,31.28168 128.59592,30.33368 C128.65032,29.63288 128.64312,28.92168 128.59752,28.21928 C128.54072,27.35208 128.88472,27.02408 129.76312,27.034241 C132.65192,27.06968 135.54232,27.04808 138.43272,27.04808 C141.62472,27.04808 144.81752,27.06888 148.00952,27.034241 C148.88392,27.02488 149.21032,27.34728 149.19752,28.21128 C149.15592,31.12408 149.51512,30.85608 146.55032,30.85688 C145.45432,30.85768 144.35912,30.85688 143.14952,30.85688 C143.72952,31.81848 144.23112,32.68488 144.42552,33.67688 C144.51192,34.11928 144.80392,34.13688 145.16712,34.13128 C146.17512,34.11528 147.18392,34.13288 148.19192,34.12328 C148.90072,34.11608 149.22392,34.42008 149.21192,35.15688 C149.16072,38.36168 149.59992,37.92968 146.54952,37.94808 C144.77432,37.95848 144.79112,37.95608 144.17752,39.64968 C142.90232,43.16888 140.13752,44.83448 136.67832,45.61768 C136.29032,45.70568 135.89512,45.76408 135.39832,45.85528 C136.75272,47.39448 138.07512,48.85528 139.35032,50.35608 C141.45752,52.83848 143.53032,55.35048 145.62952,57.83928 C145.90632,58.16728 146.13992,58.48328 145.92952,58.91368 C145.73832,59.30408 145.36232,59.32968 144.97752,59.32808 C143.70072,59.32168 142.42312,59.30168 141.14712,59.33688 C140.60072,59.35128 140.27992,59.08328 139.96712,58.70808 C136.39672,54.42728 132.78152,50.18488 128.96552,46.11928 C128.46072,45.58248 128.61752,44.99608 128.61672,44.42008 C128.60952,41.57448 128.24792,41.75368 131.25592,41.78728 C132.90952,41.80488 134.55192,41.76888 136.10872,41.14168 C137.56232,40.55608 138.66632,39.61368 139.14232,37.94968" id="Fill-171" fill="#2E3048"></path>
                        <polygon id="Fill-173" fill="#2E3048" points="127.0984 273.81184 271.0248 273.81184 271.0248 178.18064 127.0984 178.18064"></polygon>
                        <polygon id="Fill-175" fill="#FFFFFF" points="156.988 180.33664 241.1344 180.33664 241.1344 177.93664 156.988 177.93664"></polygon>
                    </g>
                </g>
                <g mask="url(#mask-2)" fill="#FFFFFF" fill-rule="nonzero" id="doublethedata">
                    <g transform="translate(40.000000, 40.000000)">
                        <path d="M10.752,40.336 C12.936,40.336 14.868,39.58 16.002,38.194 L16.002,40 L22.932,40 L22.932,9.424 L16.002,9.424 L16.002,20.512 C14.868,19.294 13.104,18.496 10.626,18.496 C4.662,18.496 0.84,22.654 0.84,29.416 C0.84,36.178 4.662,40.336 10.752,40.336 Z M11.97,34.456 C9.366,34.456 7.602,32.44 7.602,29.416 C7.602,26.392 9.366,24.376 11.97,24.376 C14.616,24.376 16.38,26.392 16.38,29.416 C16.38,32.44 14.616,34.456 11.97,34.456 Z M37.38,40.336 C43.974,40.336 48.72,35.674 48.72,29.416 C48.72,23.158 43.974,18.496 37.38,18.496 C30.786,18.496 26.04,23.158 26.04,29.416 C26.04,35.674 30.786,40.336 37.38,40.336 Z M37.38,34.456 C34.734,34.456 32.97,32.44 32.97,29.416 C32.97,26.392 34.734,24.376 37.38,24.376 C40.026,24.376 41.79,26.392 41.79,29.416 C41.79,32.44 40.026,34.456 37.38,34.456 Z M59.304,40.336 C62.076,40.336 64.302,39.202 65.52,37.564 L65.52,40 L72.45,40 L72.45,18.832 L65.52,18.832 L65.52,30.508 C65.52,32.608 64.05,34.204 61.95,34.204 C59.85,34.204 58.38,32.608 58.38,30.508 L58.38,18.832 L51.45,18.832 L51.45,32.146 C51.45,36.85 54.558,40.336 59.304,40.336 Z M88.788,40.336 C94.878,40.336 98.7,36.178 98.7,29.416 C98.7,22.654 94.878,18.496 88.914,18.496 C86.436,18.496 84.672,19.294 83.538,20.512 L83.538,9.424 L76.608,9.424 L76.608,40 L83.538,40 L83.538,38.194 C84.672,39.58 86.604,40.336 88.788,40.336 Z M87.57,34.456 C84.924,34.456 83.16,32.44 83.16,29.416 C83.16,26.392 84.924,24.376 87.57,24.376 C90.174,24.376 91.938,26.392 91.938,29.416 C91.938,32.44 90.174,34.456 87.57,34.456 Z M108.738,40 L108.738,9.424 L101.808,9.424 L101.808,40 L108.738,40 Z M122.892,40.336 C128.1,40.336 132.258,37.354 133.14,32.65 L126.462,32.65 C126.084,34.078 124.782,34.75 122.892,34.75 C120.372,34.75 118.902,33.406 118.482,31.054 L133.056,31.054 C133.098,30.55 133.14,29.962 133.14,28.996 C133.14,24.544 130.494,18.496 122.472,18.496 C114.87,18.496 111.846,24.418 111.846,29.416 C111.846,34.414 115.29,40.336 122.892,40.336 Z M126.294,26.938 L118.482,26.938 C118.944,24.376 120.246,23.41 122.472,23.41 C124.866,23.41 126.168,25.132 126.294,26.938 Z M159.18,40 L159.18,34.288 L156.618,34.288 C154.812,34.288 153.846,33.448 153.846,31.516 L153.846,24.544 L159.18,24.544 L159.18,18.832 L153.846,18.832 L153.846,12.826 L146.916,12.826 L146.916,17.236 C146.916,18.412 146.244,18.832 145.32,18.832 L143.01,18.832 L143.01,24.544 L146.916,24.544 L146.916,31.852 C146.916,37.102 150.36,40 155.568,40 L159.18,40 Z M169.218,40 L169.218,28.324 C169.218,26.224 170.688,24.628 172.788,24.628 C174.888,24.628 176.358,26.224 176.358,28.324 L176.358,40 L183.288,40 L183.288,26.686 C183.288,21.982 180.18,18.496 175.434,18.496 C172.662,18.496 170.436,19.63 169.218,21.268 L169.218,9.424 L162.288,9.424 L162.288,40 L169.218,40 Z M197.064,40.336 C202.272,40.336 206.43,37.354 207.312,32.65 L200.634,32.65 C200.256,34.078 198.954,34.75 197.064,34.75 C194.544,34.75 193.074,33.406 192.654,31.054 L207.228,31.054 C207.27,30.55 207.312,29.962 207.312,28.996 C207.312,24.544 204.666,18.496 196.644,18.496 C189.042,18.496 186.018,24.418 186.018,29.416 C186.018,34.414 189.462,40.336 197.064,40.336 Z M200.466,26.938 L192.654,26.938 C193.116,24.376 194.418,23.41 196.644,23.41 C199.038,23.41 200.34,25.132 200.466,26.938 Z M227.304,40.336 C229.488,40.336 231.42,39.58 232.554,38.194 L232.554,40 L239.484,40 L239.484,9.424 L232.554,9.424 L232.554,20.512 C231.42,19.294 229.656,18.496 227.178,18.496 C221.214,18.496 217.392,22.654 217.392,29.416 C217.392,36.178 221.214,40.336 227.304,40.336 Z M228.522,34.456 C225.918,34.456 224.154,32.44 224.154,29.416 C224.154,26.392 225.918,24.376 228.522,24.376 C231.168,24.376 232.932,26.392 232.932,29.416 C232.932,32.44 231.168,34.456 228.522,34.456 Z M249.732,40.336 C252.462,40.336 254.604,39.16 255.15,37.396 L255.15,40 L262.038,40 L262.038,26.392 C262.038,21.604 257.922,18.496 252.63,18.496 C246.372,18.496 243.138,22.066 242.97,26.35 L249.018,26.35 C249.06,24.838 249.9,23.41 252.21,23.41 C254.1,23.41 255.15,24.292 255.15,25.552 C255.15,26.56 254.562,27.316 253.47,27.316 L250.446,27.316 C245.994,27.316 242.97,29.836 242.97,33.994 C242.97,37.522 245.784,40.336 249.732,40.336 Z M251.664,35.506 C250.446,35.506 249.522,34.75 249.522,33.658 C249.522,32.398 250.404,31.516 251.622,31.516 L255.15,31.516 L255.15,31.684 C255.15,33.658 253.89,35.506 251.664,35.506 Z M280.518,40 L280.518,34.288 L277.956,34.288 C276.15,34.288 275.184,33.448 275.184,31.516 L275.184,24.544 L280.518,24.544 L280.518,18.832 L275.184,18.832 L275.184,12.826 L268.254,12.826 L268.254,17.236 C268.254,18.412 267.582,18.832 266.658,18.832 L264.348,18.832 L264.348,24.544 L268.254,24.544 L268.254,31.852 C268.254,37.102 271.698,40 276.906,40 L280.518,40 Z M289.338,40.336 C292.068,40.336 294.21,39.16 294.756,37.396 L294.756,40 L301.644,40 L301.644,26.392 C301.644,21.604 297.528,18.496 292.236,18.496 C285.978,18.496 282.744,22.066 282.576,26.35 L288.624,26.35 C288.666,24.838 289.506,23.41 291.816,23.41 C293.706,23.41 294.756,24.292 294.756,25.552 C294.756,26.56 294.168,27.316 293.076,27.316 L290.052,27.316 C285.6,27.316 282.576,29.836 282.576,33.994 C282.576,37.522 285.39,40.336 289.338,40.336 Z M291.27,35.506 C290.052,35.506 289.128,34.75 289.128,33.658 C289.128,32.398 290.01,31.516 291.228,31.516 L294.756,31.516 L294.756,31.684 C294.756,33.658 293.496,35.506 291.27,35.506 Z"></path>
                    </g>
                </g>
            </g>
            <text id="T&amp;C-Apply" font-family="Vi-Medium, Vi" font-size="5.997085" font-weight="400" line-spacing="6" fill="#FFFFFF">
                <tspan x="361" y="475">T&amp;C Apply</tspan>
            </text>
        </g>
    </g>
</svg>