<svg xmlns="http://www.w3.org/2000/svg" width="18" height="18" viewBox="0 0 18 18">
    <g fill="none" fill-rule="evenodd">
        <g>
            <g>
                <g>
                    <g>
                        <path d="M0 0H18V18H0z" transform="translate(-1318.000000, -12.000000) translate(1259.000000, 10.000000) translate(68.000000, 11.000000) rotate(90.000000) translate(-68.000000, -11.000000) translate(59.000000, 2.000000)"/>
                    </g>
                    <path fill="#EE2737" d="M6.75 7.208v3.68c0 .552.448 1 1 1 .21 0 .416-.067.586-.19l2.544-1.84c.447-.324.548-.949.224-1.396-.062-.087-.138-.162-.224-.225l-2.544-1.84c-.447-.323-1.073-.223-1.396.224-.124.171-.19.376-.19.587z" transform="translate(-1318.000000, -12.000000) translate(1259.000000, 10.000000) translate(68.000000, 11.000000) rotate(90.000000) translate(-68.000000, -11.000000) translate(59.000000, 2.000000)"/>
                </g>
            </g>
        </g>
    </g>
</svg>
