<?xml version="1.0" encoding="UTF-8"?>
<svg width="241px" height="220px" viewBox="0 0 241 220" version="1.1" xmlns="http://www.w3.org/2000/svg" xmlns:xlink="http://www.w3.org/1999/xlink">
    <title>sim-delivery</title>
    <defs>
        <polygon id="path-1" points="0.000329753541 0.272754836 240.505745 0.272754836 240.505745 9.89676472 0.000329753541 9.89676472"></polygon>
        <path d="M16.8945929,0.739618217 C12.0478754,1.52872026 7.97410014,3.17224298 3.73544812,8.39839454 L3.73544812,8.39839454 C-0.502544397,13.6238863 0.279631003,21.2760648 2.13350541,25.5771987 L2.13350541,25.5771987 C4.03816187,29.9964341 7.87913112,35.0477428 11.1806236,38.4740027 L11.1806236,38.4740027 C13.9367037,37.4104304 15.3473893,30.0228254 16.2693802,26.4111661 L16.2693802,26.4111661 C18.0948958,23.3609832 21.2526157,25.1932043 22.4891915,22.7731154 L22.4891915,22.7731154 C22.9759078,21.8197271 23.1216588,20.2362447 23.1737599,18.4601053 L23.1737599,18.4601053 C28.4135437,20.9613477 39.9826169,20.2626361 42.230217,11.7850674 L42.230217,11.7850674 C41.1360948,13.7908117 38.0832365,15.1130195 38.0832365,15.1130195 L38.0832365,15.1130195 C38.0832365,15.1130195 44.463308,10.0524738 38.3562724,5.72098979 L38.3562724,5.72098979 C40.088138,10.2807592 37.5813516,12.5141291 37.5813516,12.5141291 L37.5813516,12.5141291 C37.5813516,12.5141291 37.8550471,10.9642957 36.7609248,9.64208797 L36.7609248,9.64208797 C36.6725509,12.0324865 35.2572487,11.7388825 33.146826,8.95063401 L33.146826,8.95063401 C31.0370628,6.16304528 30.2819272,4.48653334 27.603669,2.88589659 L27.603669,2.88589659 C25.3132009,1.51684414 23.0115211,0.49087953 19.7904885,0.49087953 L19.7904885,0.49087953 C18.901473,0.49087953 17.9425497,0.569393863 16.8945929,0.739618217" id="path-3"></path>
        <linearGradient x1="0.000102076764%" y1="49.9994228%" x2="99.9993541%" y2="49.9994228%" id="linearGradient-5">
            <stop stop-color="#000000" offset="0%"></stop>
            <stop stop-color="#78605D" offset="100%"></stop>
        </linearGradient>
        <path d="M0.501225383,0.665062589 C0.501225383,0.665062589 -0.612022573,5.46631305 2.51799804,5.33897467 L2.51799804,5.33897467 C5.64867816,5.21361565 5.3730042,1.19816832 5.27209962,0.0824730393 L5.27209962,0.0824730393 C3.84162876,0.166265647 0.501225383,0.665062589 0.501225383,0.665062589" id="path-6"></path>
        <linearGradient x1="49.1805458%" y1="8.46292526%" x2="52.2152467%" y2="96.5541886%" id="linearGradient-8">
            <stop stop-color="#C99169" offset="0%"></stop>
            <stop stop-color="#C99169" offset="100%"></stop>
        </linearGradient>
        <path d="M1.81166596,1.79131441 C4.91464678,1.81440686 6.32005638,0.576651491 4.56510803,0.451952255 L4.56510803,0.451952255 C4.32504745,0.434797863 4.08894391,0.426880208 3.85943545,0.426880208 L3.85943545,0.426880208 C0.875165899,0.426220667 -1.06972049,1.76888175 1.81166596,1.79131441" id="path-9"></path>
        <linearGradient x1="4.47282396%" y1="46.7132722%" x2="95.5794732%" y2="53.1649467%" id="linearGradient-11">
            <stop stop-color="#4F3025" offset="0%"></stop>
            <stop stop-color="#3B211D" offset="100%"></stop>
        </linearGradient>
        <polygon id="path-12" points="0.410071387 0.619537471 36.7156167 0.619537471 36.7156167 37.3820421 0.410071387 37.3820421"></polygon>
    </defs>
    <g id="24th-Aug" stroke="none" stroke-width="1" fill="none" fill-rule="evenodd">
        <g id="01-Consumer_Web_Desktop_V3" transform="translate(-860.000000, -2312.000000)">
            <g id="5th" transform="translate(352.000000, 2312.000000)">
                <g id="sim-delivery" transform="translate(508.000000, 0.000000)">
                    <g>
                        <g id="Group-50" transform="translate(120.500000, 105.608351) scale(-1, 1) translate(-120.500000, -105.608351) translate(0.000000, 2.608351)">
                            <g id="Group-3" transform="translate(0.000000, 195.367190)">
                                <mask id="mask-2" fill="white">
                                    <use xlink:href="#path-1"></use>
                                </mask>
                                <g id="Clip-2"></g>
                                <path d="M240.506075,5.08456184 C240.506075,7.74217306 186.666555,9.89702863 120.252873,9.89702863 C53.8391905,9.89702863 0.000329753541,7.74217306 0.000329753541,5.08456184 C0.000329753541,2.42695062 53.8391905,0.272754836 120.252873,0.272754836 C186.666555,0.272754836 240.506075,2.42695062 240.506075,5.08456184" id="Fill-1" fill="#181822" opacity="0.164783296" style="mix-blend-mode: multiply;" mask="url(#mask-2)"></path>
                            </g>
                            <polygon id="Fill-4" fill="#5B1321" points="40.4941306 131.747817 39.6994246 132.834482 18.8088782 117.557176 19.6035842 116.470511"></polygon>
                            <path d="M223.299008,173.879268 C223.299008,188.901897 211.125826,201.080196 196.109509,201.080196 C181.093852,201.080196 168.92067,188.901897 168.92067,173.879268 C168.92067,158.855979 181.093852,146.67768 196.109509,146.67768 C211.125826,146.67768 223.299008,158.855979 223.299008,173.879268" id="Fill-6" fill="#474746"></path>
                            <path d="M219.249832,173.879268 C219.249832,186.664569 208.889635,197.028461 196.109707,197.028461 C183.329779,197.028461 172.969582,186.664569 172.969582,173.879268 C172.969582,161.093308 183.329779,150.729416 196.109707,150.729416 C208.889635,150.729416 219.249832,161.093308 219.249832,173.879268" id="Fill-8" fill="#6E6D6C"></path>
                            <path d="M213.103688,173.879268 C213.103688,183.267999 205.494955,190.879931 196.109509,190.879931 C186.724724,190.879931 179.11599,183.267999 179.11599,173.879268 C179.11599,164.489878 186.724724,156.877946 196.109509,156.877946 C205.494955,156.877946 213.103688,164.489878 213.103688,173.879268" id="Fill-10" fill="#8C8989"></path>
                            <path d="M204.662129,173.879268 C204.662129,178.225927 201.139042,181.750495 196.79355,181.750495 C192.448717,181.750495 188.92629,178.225927 188.92629,173.879268 C188.92629,169.531949 192.448717,166.007382 196.79355,166.007382 C201.139042,166.007382 204.662129,169.531949 204.662129,173.879268" id="Fill-12" fill="#474746"></path>
                            <path d="M78.5043597,173.879268 C78.5043597,188.901897 66.3311779,201.080196 51.3148612,201.080196 C36.2985444,201.080196 24.1253626,188.901897 24.1253626,173.879268 C24.1253626,158.855979 36.2985444,146.67768 51.3148612,146.67768 C66.3311779,146.67768 78.5043597,158.855979 78.5043597,173.879268" id="Fill-14" fill="#474746"></path>
                            <path d="M74.4548543,173.879268 C74.4548543,186.664569 64.0946575,197.028461 51.3147293,197.028461 C38.534801,197.028461 28.1746042,186.664569 28.1746042,173.879268 C28.1746042,161.093308 38.534801,150.729416 51.3147293,150.729416 C64.0946575,150.729416 74.4548543,161.093308 74.4548543,173.879268" id="Fill-16" fill="#6E6D6C"></path>
                            <path d="M68.3083802,173.879268 C68.3083802,183.267999 60.7003065,190.879931 51.3148612,190.879931 C41.9294159,190.879931 34.3213421,183.267999 34.3213421,173.879268 C34.3213421,164.489878 41.9294159,156.877946 51.3148612,156.877946 C60.7003065,156.877946 68.3083802,164.489878 68.3083802,173.879268" id="Fill-18" fill="#8C8989"></path>
                            <path d="M59.1828466,173.879268 C59.1828466,178.225927 55.6604193,181.750495 51.3149271,181.750495 C46.9694349,181.750495 43.4470076,178.225927 43.4470076,173.879268 C43.4470076,169.531949 46.9694349,166.007382 51.3149271,166.007382 C55.6604193,166.007382 59.1828466,169.531949 59.1828466,173.879268" id="Fill-20" fill="#474746"></path>
                            <polygon id="Fill-22" fill="#5B1321" points="48.981591 124.156669 51.3610926 124.156669 51.3610926 117.187367 48.981591 117.187367"></polygon>
                            <polygon id="Fill-24" fill="#5B1321" points="61.8195559 124.156669 64.1990575 124.156669 64.1990575 117.187367 61.8195559 117.187367"></polygon>
                            <path d="M76.4646362,102.279804 C79.797785,108.01201 79.8901159,114.413238 98.8727083,115.396316 C116.948478,116.33255 123.75657,119.448052 131.106117,118.733506 C136.391407,118.219534 138.13976,104.914323 130.866716,104.380558 C122.556927,103.770917 99.0435206,102.157084 99.0435206,102.157084 L76.4646362,102.279804 Z" id="Fill-25" fill="#062338"></path>
                            <path d="M121.060571,117.094007 L136.235829,166.936094 L148.180162,166.728262 C148.180162,166.728262 134.359531,112.98685 132.946867,107.831955 C128.243263,109.71498 121.060571,117.094007 121.060571,117.094007" id="Fill-26" fill="#B08900"></path>
                            <path d="M108.842279,119.109451 C108.842279,119.109451 53.4621503,120.155209 49.4569638,120.329392 C45.4511177,120.502915 44.2870877,121.357336 44.7546783,122.942797 C45.0422233,123.919278 44.9815487,124.967016 43.1646067,127.00443 C41.6734612,128.676323 38.7887772,131.566838 36.9012679,133.132506 C31.9688144,137.225149 74.384353,166.537386 76.4532267,168.304948 C80.7433203,171.968071 84.0916377,174.793927 84.0916377,174.793927 C84.0916377,174.793927 146.806804,174.861225 153.599068,174.861225 C160.391331,174.861225 183.729308,150.286239 186.753148,136.912411 C175.437985,130.664913 170.249643,116.435345 167.862227,111.021814 C165.474812,105.608944 158.25189,86.5194044 157.664929,84.2899932 C157.078627,82.0599222 152.15145,83.467902 154.263191,88.279709 C156.374933,93.091516 164.586456,115.62513 165.759719,120.554378 C166.932982,125.483627 167.167766,131.938297 163.2958,140.03649 C159.424494,148.134022 150.743402,159.284377 148.866445,161.396347 C146.990147,163.508976 142.766004,164.799514 137.135133,164.799514 L110.154039,164.799514 C105.578378,164.799514 94.7400391,156.123351 94.3166355,145.669728 C93.6129415,128.300906 108.842279,119.109451 108.842279,119.109451" id="Fill-27" fill="#DC202F"></path>
                            <path d="M12.5913092,166.821423 C12.5913092,166.821423 14.9655347,139.778844 40.1580458,130.659305 C58.7838448,123.918289 78.6666644,132.466454 85.5103694,149.440725 C89.9719348,160.504648 86.7185863,172.719895 85.5954458,175.436227 C74.4576902,177.682793 20.7342432,173.188342 12.5913092,166.821423" id="Fill-28" fill="#EE2737"></path>
                            <path d="M157.631624,174.697599 L81.8892138,174.697599 C80.790475,174.697599 79.8994809,175.588967 79.8994809,176.688828 C79.8994809,177.788028 80.790475,178.679397 81.8892138,178.679397 L157.631624,178.679397 C158.730363,178.679397 159.622016,177.788028 159.622016,176.688828 C159.622016,175.588967 158.730363,174.697599 157.631624,174.697599" id="Fill-29" fill="#E50042"></path>
                            <path d="M77.5871832,120.18292 C72.1587804,120.016654 71.6991039,114.009978 77.2633652,113.746064 C82.8276264,113.48215 111.229958,115.801952 113.421501,115.971516 C115.613043,116.141081 115.506202,120.105065 112.630092,120.138054 C107.774801,120.194136 84.5258572,120.39537 77.5871832,120.18292" id="Fill-30" fill="#711B2E"></path>
                            <path d="M68.3360795,76.961241 L14.5684455,76.961241 C14.1424039,76.961241 13.7974817,77.3063082 13.7974817,77.7325289 L13.7974817,116.606361 L69.1070432,116.606361 L69.1070432,77.7325289 C69.1070432,77.3063082 68.762121,76.961241 68.3360795,76.961241" id="Fill-31" fill="#EE2737"></path>
                            <path d="M13.7972839,83.3815362 L13.7972839,116.606295 L69.1075049,116.606295 L69.1075049,103.538607 C38.0051509,110.392446 21.2088245,101.595542 13.7972839,83.3815362" id="Fill-32" fill="#DC202F"></path>
                            <line x1="41.1256086" y1="76.3375469" x2="41.1256086" y2="116.498618" id="Stroke-33" stroke="#711B2E" stroke-width="2.898" stroke-linecap="round"></line>
                            <path d="M70.394467,118.694512 L11.5268648,118.694512 C10.6668676,118.694512 9.96844956,117.995801 9.96844956,117.135442 C9.96844956,116.274423 10.6668676,115.576372 11.5268648,115.576372 L70.394467,115.576372 C71.2551238,115.576372 71.9528822,116.274423 71.9528822,117.135442 C71.9528822,117.995801 71.2551238,118.694512 70.394467,118.694512" id="Fill-34" fill="#711B2E"></path>
                            <path d="M166.98838,81.0703777 L166.98838,95.5381282 C170.723169,95.0637432 170.723169,81.5447626 166.98838,81.0703777" id="Fill-35" fill="#92D5F7"></path>
                            <path d="M159.53417,88.304187 C159.53417,91.7693742 161.966432,94.6579099 165.213185,95.3790542 L165.213185,81.2299795 C161.966432,81.9511238 159.53417,84.8389997 159.53417,88.304187" id="Fill-36" fill="#E50042"></path>
                            <path d="M166.788088,81.0475492 C166.245973,81.0475492 165.721665,81.1168265 165.213185,81.2296496 L165.213185,95.3787243 C165.721665,95.4922072 166.245973,95.5614845 166.788088,95.5614845 C166.856677,95.5614845 166.921968,95.5469693 166.988578,95.5383921 L166.988578,81.0706416 C166.921968,81.0620644 166.856677,81.0475492 166.788088,81.0475492" id="Fill-37" fill="#A1A1A1"></path>
                            <path d="M110.73612,162.941298 C110.73612,162.941298 119.497012,163.862357 120.85098,164.134188 C122.206267,164.405359 137.234455,168.604227 137.234455,172.523345 C135.631193,172.523345 130.063634,172.525325 122.260346,172.525325 C117.49211,172.525325 107.267772,173.016864 105.890062,172.523345 C105.474572,172.374894 104.62117,171.046088 105.298484,169.717943 C106.526486,167.313029 109.893929,162.90303 110.73612,162.941298" id="Fill-38" fill="#FFFFFF"></path>
                            <polygon id="Fill-39" fill="#2F3043" points="105.890457 174.660519 137.23485 174.660519 137.23485 172.524137 105.890457 172.524137"></polygon>
                            <polygon id="Fill-40" fill="#F4A67B" points="105.930226 46.4745872 98.3577652 40.9739654 104.303222 32.7820833 111.875682 38.2827051"></polygon>
                            <path d="M122.226909,80.3116917 C124.736334,81.3132443 134.097377,85.2231262 148.7048,84.700577 C150.351589,83.9985665 157.403698,83.461502 157.403698,83.461502 C157.403698,83.461502 156.395312,81.4814893 153.498757,81.2967497 C147.371276,80.9054976 143.997238,80.1962295 139.176241,79.6030834 C133.243975,78.8733619 129.02313,77.3551982 125.70515,75.9524968 C123.278823,74.9258724 119.116674,71.8750297 119.116674,71.8750297 L114.271275,76.5931473 C114.271275,76.5931473 117.028674,78.2373298 122.226909,80.3116917" id="Fill-41" fill="#F4A67B"></path>
                            <path d="M92.5149941,44.6694833 C96.0651207,42.6327291 100.37434,44.0908524 103.602627,51.0641129 C106.831574,58.0380331 111.409872,65.6354494 120.445779,70.5284099 C119.649094,74.4336733 113.984588,77.447568 113.984588,77.447568 C113.984588,77.447568 100.455459,71.6949086 95.8778207,64.0486682 C89.89807,54.0595336 88.9642079,46.7062375 92.5149941,44.6694833" id="Fill-42" fill="#BC3D57"></path>
                            <path d="M76.4646362,102.279804 C76.5622432,108.225781 79.8901159,114.413238 98.8727083,115.396316 C116.948478,116.33255 128.155482,116.593825 135.50437,115.879279 C140.790319,115.365307 142.538672,102.059436 135.265628,101.525671 C126.955839,100.91669 103.441773,99.3021977 103.441773,99.3021977 L76.4646362,102.279804 Z" id="Fill-43" fill="#FEC500"></path>
                            <path d="M124.664645,112.554823 L110.673862,162.741977 L122.703931,164.444221 C122.703931,164.444221 138.084955,116.244337 139.663815,111.138926 C134.685196,110.196094 124.664645,112.554823 124.664645,112.554823" id="Fill-44" fill="#FEC500"></path>
                            <path d="M76.4645969,102.279804 C76.4507865,95.9386172 80.1011582,69.1942601 83.6803031,58.3731375 C87.3062731,47.408182 93.7001943,37.8907933 100.746368,39.9710932 C112.288401,43.3775596 108.379503,56.7949334 107.752971,66.6593687 C107.127099,76.5231442 103.441773,99.3021977 103.441773,99.3021977 C103.441773,99.3021977 91.0067673,102.123435 76.4645969,102.279804" id="Fill-45" fill="#EE2737"></path>
                            <path d="M126.543383,83.391235 C128.965093,84.4910955 131.338659,89.0152365 151.783379,87.3492811 C154.833599,87.5815252 159.091377,86.5746943 159.091377,86.5746943 C159.091377,86.5746943 158.828233,81.5095302 154.477465,81.7886189 C151.684453,81.9674205 147.387764,82.7716975 142.761322,82.1950461 C137.066478,81.4851181 132.99666,79.8264204 129.794094,78.2805457 C127.450865,77.1503352 123.409406,73.7207763 123.409406,73.7207763 L118.856828,79.2761602 C118.856828,79.2761602 121.527832,81.11234 126.543383,83.391235" id="Fill-46" fill="#FFC2A1"></path>
                            <path d="M97.4316853,42.9060118 C100.793852,40.4747066 104.947428,42.0621476 108.167801,50.0409193 C111.389493,58.0196911 115.913712,66.6892569 124.656138,72.1364362 C123.965634,76.6632164 118.597906,80.2689377 118.597906,80.2689377 C118.597906,80.2689377 105.535708,73.92973 101.01083,65.2034227 C95.0996683,53.8056486 94.0695182,45.3366572 97.4316853,42.9060118" id="Fill-47" fill="#FF8E75"></path>
                            <path d="M101.82697,35.8519937 C101.82697,35.8519937 116.73249,46.4560472 121.184822,42.9354381 C121.85686,42.4056313 123.717329,37.5852471 124.864212,34.0685967 C126.558486,28.8741148 127.866948,22.012358 126.933745,17.3173328 C125.389839,9.55826924 117.327365,-1.63167273 109.839981,0.421576055 C102.355235,2.47482484 85.2390481,11.443273 101.82697,35.8519937" id="Fill-48" fill="#FFC2A1"></path>
                            <path d="M123.506683,23.5035365 C123.494812,23.4942995 123.489536,23.4910006 123.473048,23.4811038 L123.92481,22.5468492 C125.761538,24.9372478 128.007819,26.7067893 130.048993,28.5640822 C125.286033,32.5808491 121.023639,28.3555903 122.4396,23.1597889 C122.878832,23.2006955 123.285088,23.3854351 123.506683,23.5035365 C123.755317,23.6698021 123.719704,23.6176792 123.506683,23.5035365" id="Fill-49" fill="#FFC2A1"></path>
                        </g>
                        <g id="Group-53" transform="translate(129.807037, 20.859815) scale(-1, 1) translate(-129.807037, -20.859815) translate(108.307037, 1.359815)">
                            <mask id="mask-4" fill="white">
                                <use xlink:href="#path-3"></use>
                            </mask>
                            <g id="Clip-52"></g>
                            <path d="M16.8945929,0.739618217 C12.0478754,1.52872026 7.97410014,3.17224298 3.73544812,8.39839454 L3.73544812,8.39839454 C-0.502544397,13.6238863 0.279631003,21.2760648 2.13350541,25.5771987 L2.13350541,25.5771987 C4.03816187,29.9964341 7.87913112,35.0477428 11.1806236,38.4740027 L11.1806236,38.4740027 C13.9367037,37.4104304 15.3473893,30.0228254 16.2693802,26.4111661 L16.2693802,26.4111661 C18.0948958,23.3609832 21.2526157,25.1932043 22.4891915,22.7731154 L22.4891915,22.7731154 C22.9759078,21.8197271 23.1216588,20.2362447 23.1737599,18.4601053 L23.1737599,18.4601053 C28.4135437,20.9613477 39.9826169,20.2626361 42.230217,11.7850674 L42.230217,11.7850674 C41.1360948,13.7908117 38.0832365,15.1130195 38.0832365,15.1130195 L38.0832365,15.1130195 C38.0832365,15.1130195 44.463308,10.0524738 38.3562724,5.72098979 L38.3562724,5.72098979 C40.088138,10.2807592 37.5813516,12.5141291 37.5813516,12.5141291 L37.5813516,12.5141291 C37.5813516,12.5141291 37.8550471,10.9642957 36.7609248,9.64208797 L36.7609248,9.64208797 C36.6725509,12.0324865 35.2572487,11.7388825 33.146826,8.95063401 L33.146826,8.95063401 C31.0370628,6.16304528 30.2819272,4.48653334 27.603669,2.88589659 L27.603669,2.88589659 C25.3132009,1.51684414 23.0115211,0.49087953 19.7904885,0.49087953 L19.7904885,0.49087953 C18.901473,0.49087953 17.9425497,0.569393863 16.8945929,0.739618217" id="Fill-51" fill="url(#linearGradient-5)" mask="url(#mask-4)"></path>
                        </g>
                        <path d="M129.329284,26.0339674 C129.93669,28.5246532 132.405884,31.2812321 134.042121,30.8827223 C135.677699,30.482893 136.513294,28.1413185 135.907207,25.6512925 C135.299801,23.1625861 133.686647,19.9705496 131.542589,20.623736 C129.932733,21.1146156 128.723197,23.5446012 129.329284,26.0339674" id="Fill-54" fill="#FFC2A1" transform="translate(132.637475, 25.729440) scale(-1, 1) translate(-132.637475, -25.729440) "></path>
                        <g id="Group-58" transform="translate(117.969711, 24.153345) scale(-1, 1) translate(-117.969711, -24.153345) translate(114.969711, 21.153345)">
                            <mask id="mask-7" fill="white">
                                <use xlink:href="#path-6"></use>
                            </mask>
                            <g id="Clip-57"></g>
                            <path d="M0.501225383,0.665062589 C0.501225383,0.665062589 -0.612022573,5.46631305 2.51799804,5.33897467 L2.51799804,5.33897467 C5.64867816,5.21361565 5.3730042,1.19816832 5.27209962,0.0824730393 L5.27209962,0.0824730393 C3.84162876,0.166265647 0.501225383,0.665062589 0.501225383,0.665062589" id="Fill-56" fill="url(#linearGradient-8)" mask="url(#mask-7)"></path>
                        </g>
                        <g id="Group-61" transform="translate(117.969711, 21.493561) scale(-1, 1) translate(-117.969711, -21.493561) translate(114.969711, 20.493561)">
                            <mask id="mask-10" fill="white">
                                <use xlink:href="#path-9"></use>
                            </mask>
                            <g id="Clip-60"></g>
                            <path d="M1.81166596,1.79131441 C4.91464678,1.81440686 6.32005638,0.576651491 4.56510803,0.451952255 L4.56510803,0.451952255 C4.32504745,0.434797863 4.08894391,0.426880208 3.85943545,0.426880208 L3.85943545,0.426880208 C0.875165899,0.426220667 -1.06972049,1.76888175 1.81166596,1.79131441" id="Fill-59" fill="url(#linearGradient-11)" mask="url(#mask-10)"></path>
                        </g>
                        <g id="Group-93" transform="translate(124.969365, 90.040247) scale(-1, 1) translate(-124.969365, -90.040247) translate(21.469365, 0.040247)">
                            <path d="M109.041978,26.0571918 C110.023324,24.3212993 111.946447,25.0906078 111.813227,26.6067922" id="Stroke-62" stroke="#4B2B19" stroke-width="0.793086001"></path>
                            <path d="M111.226595,167.731688 L97.4725748,165.900787 C96.9983892,165.837447 96.6653381,165.402649 96.7286508,164.928264 L97.0959962,162.169046 C97.1586494,161.695981 97.5939241,161.36279 98.0674502,161.42547 L111.82147,163.257031 C112.294996,163.31971 112.628048,163.755168 112.564735,164.228893 L112.198049,166.988111 C112.134736,167.462496 111.700121,167.795027 111.226595,167.731688" id="Fill-64" fill="#D3CCB5"></path>
                            <path d="M168.833615,139.795826 C197.601974,129.774362 206.604246,157.187741 206.604246,157.187741 C206.604246,157.187741 191.368972,153.685606 179.729332,161.732335 C166.371016,170.967996 159.56886,178.401126 149.538417,175.465746 C147.605401,171.243126 151.214884,145.9338 168.833615,139.795826" id="Fill-66" fill="#E50042"></path>
                            <path d="M146.857322,90.4113003 C146.857322,92.5958461 145.087205,94.3660474 142.904237,94.3660474 C140.720609,94.3660474 138.951152,92.5958461 138.951152,90.4113003 C138.951152,88.2267544 140.720609,86.4565531 142.904237,86.4565531 C145.087205,86.4565531 146.857322,88.2267544 146.857322,90.4113003" id="Fill-68" fill="#3D3C3C"></path>
                            <path d="M144.815027,90.4113003 C144.815027,91.4669552 143.959646,92.3226954 142.904435,92.3226954 C141.849224,92.3226954 140.993843,91.4669552 140.993843,90.4113003 C140.993843,89.3556454 141.849224,88.4999051 142.904435,88.4999051 C143.959646,88.4999051 144.815027,89.3556454 144.815027,90.4113003" id="Fill-70" fill="#2A2A29"></path>
                            <line x1="104.219332" y1="30.3425569" x2="97.2951674" y2="23.8628152" id="Stroke-72" stroke="#D4E5EF" stroke-width="1.018164"></line>
                            <line x1="100.608465" y1="41.4023235" x2="85.7187736" y2="35.7420338" id="Stroke-74" stroke="#D4E5EF" stroke-width="1.018164"></line>
                            <g id="Group-78" transform="translate(76.502822, 0.000000)">
                                <mask id="mask-13" fill="white">
                                    <use xlink:href="#path-12"></use>
                                </mask>
                                <g id="Clip-77"></g>
                                <path d="M3.37621461,33.1682152 C3.37621461,33.1682152 -6.7459001,11.388735 10.4072196,2.89731086 C27.5596798,-5.59411327 36.7156167,12.3869887 36.7156167,12.3869887 L22.3891443,20.1124032 C22.3891443,20.1124032 22.6549257,22.3774427 22.8435447,25.8432897 C23.0163355,29.0373056 22.4610306,34.7648932 17.1869524,36.5700631 C11.3964802,38.5520552 5.70097708,36.7092776 3.37621461,33.1682152" id="Fill-76" fill="#FFC600" mask="url(#mask-13)"></path>
                            </g>
                            <path d="M77.0890575,16.6578385 C76.0668215,24.9605643 79.8787724,33.1682812 79.8787724,33.1682812 C82.2041944,36.7093436 87.8990381,38.5521212 93.6895102,36.5701291 C98.9642479,34.7649592 99.5195529,29.0373716 99.3461025,25.8433557 C99.3368694,25.6744509 99.3269768,25.5101646 99.3177437,25.3465381 C91.2579076,26.4378214 82.8768916,23.6066869 77.0890575,16.6578385" id="Fill-79" fill="#FFC600"></path>
                            <path d="M79.8790362,33.1682152 C79.8790362,33.1682152 83.1534889,38.6596001 91.6730014,37.0589633 C97.3526764,35.9788964 99.3127314,31.5768154 99.3127314,27.4155558 C99.3127314,23.2542961 98.8919659,20.1124032 98.8919659,20.1124032 L113.218438,12.3869887" id="Stroke-81" stroke="#4A3A00" stroke-width="2.063376" stroke-linecap="round" stroke-linejoin="round"></path>
                            <path d="M114.59107,26.0101492 C114.281762,26.656078 112.540003,28.2171277 110.297679,29.231876 C108.056015,30.2466243 104.900273,29.761023 103.672271,29.4938104 C101.163506,32.4839529 99.329417,39.8992688 100.24877,41.893137 C102.51022,43.5359999 105.98846,44.8430327 108.668697,45.1201421 C109.152775,45.1709455 109.630918,45.0198549 109.993646,44.6939214 C113.833956,41.2392907 117.8431,32.3209862 117.690094,31.101045 C117.529834,29.819084 114.830471,27.6629089 114.59107,26.0101492" id="Fill-83" fill="#CADEF8"></path>
                            <path d="M104.378999,30.5709743 C107.658728,30.9813601 110.472844,30.6514679 112.937422,28.7308358 C113.603524,28.2115855 114.243246,27.5696154 114.861204,26.8003069 C114.726006,26.5284758 114.627739,26.2632425 114.590807,26.0098853 C114.282157,26.6558141 112.53974,28.2175236 110.298075,29.2322719 C108.055751,30.2463604 104.900009,29.7607591 103.672667,29.4935465 C101.163902,32.483689 99.3298127,39.8996647 100.249166,41.8935329 C102.510615,43.535736 105.987537,44.8427688 108.667773,45.120538 C109.146576,45.1700218 109.618123,45.0222301 109.978874,44.7042141 C108.294492,44.3215392 102.935338,43.0131869 101.304377,41.5299917 C100.562431,39.0558005 102.541612,32.4803901 104.378999,30.5709743" id="Fill-85" fill="#98C1D6"></path>
                            <path d="M72.9799986,152.008962 C70.648641,146.225952 66.8010767,141.424042 62.0084387,137.867805 C67.3003236,158.019597 37.0678594,185.538541 0.65647335,165.786578 C0.182287758,168.015329 0.0609384545,169.38966 0.0609384545,169.38966 C8.20387241,175.756579 61.9273194,180.251029 73.065075,178.003804 C74.1882156,175.288132 77.4409045,163.072885 72.9799986,152.008962" id="Fill-87" fill="#DC202F"></path>
                            <path d="M38.1426581,131.002815 C41.0504248,130.768591 43.9885289,130.849745 46.8883815,131.279264 C49.7908722,131.703506 52.6254336,132.545391 55.3465599,133.658447 C56.016619,133.961288 56.713718,134.210026 57.3573969,134.569609 L59.3088784,135.608109 L61.1766025,136.792422 C61.4938254,136.98244 61.7945606,137.19621 62.0854032,137.423176 L62.9704617,138.088239 C65.3005003,139.895388 67.4458768,141.96909 69.238417,144.331777 C71.0190862,146.699743 72.5102317,149.290057 73.6254582,152.045316 C74.7261755,154.814431 75.3863421,157.741894 75.6897153,160.69113 C75.9924291,163.643664 75.9462636,166.619292 75.6303597,169.56127 C75.4641639,171.031929 75.243229,172.49731 74.9266656,173.945537 C74.6114213,175.399701 74.2539684,176.823516 73.6999825,178.267124 L73.5707191,178.603614 L73.2007356,178.67817 C71.611983,178.995526 70.0568653,179.083277 68.4958121,179.16707 C66.9380563,179.236347 65.3842577,179.264058 63.833097,179.25746 C60.7301162,179.251522 57.6350494,179.150575 54.5432802,179.002124 C51.451511,178.854332 48.3636989,178.655077 45.2805032,178.410297 C42.1966481,178.166177 39.115431,177.894346 36.0427875,177.535423 C29.896841,176.84265 23.7654037,176.003404 17.6768343,174.895626 C14.6371661,174.318975 11.6080501,173.677004 8.61850451,172.871408 C7.127359,172.454424 5.63687299,172.032162 4.18595741,171.485201 C2.74493443,170.93626 1.28478575,170.347073 0.0607406023,169.389726 C1.32567519,170.287033 2.80033302,170.802984 4.25784368,171.281328 C5.71667335,171.772867 7.21441393,172.143006 8.71017599,172.504568 C11.7115927,173.203279 14.7499419,173.736385 17.7955456,174.207471 C23.8827959,175.181972 30.0129143,175.887942 36.1529252,176.448758 C42.2949147,176.989781 48.4428397,177.48528 54.5999978,177.726101 C57.6779174,177.85212 60.757156,177.931294 63.8297995,177.914799 C66.8885933,177.883129 70.0021262,177.822429 72.9290187,177.33023 L72.4297718,177.741276 C72.9309972,176.463274 73.3036187,175.053315 73.613587,173.65985 C73.9294909,172.261107 74.1543828,170.839272 74.3251952,169.413478 C74.6516512,166.559251 74.7162829,163.671375 74.4432469,160.817148 C74.170211,157.964241 73.5529124,155.143003 72.5168268,152.480774 C71.4424897,149.828441 70.0878622,147.284972 68.4034811,144.957913 C66.7158025,142.632833 64.6752875,140.574306 62.4408775,138.764517 L61.5914324,138.098135 C61.3124609,137.86919 61.0235968,137.6541 60.718245,137.462763 L58.9171312,136.267234 L57.0283029,135.210919 C56.7183346,135.02486 56.3905596,134.87311 56.062125,134.725318 L55.0820975,134.263469 C52.4519833,133.079156 49.6853511,132.15018 46.8277069,131.632249 C43.9720412,131.120256 41.0596579,130.911765 38.1426581,131.002815" id="Fill-89" fill="#920F29"></path>
                            <path d="M170.024487,139.400879 C169.630102,139.526238 169.235057,139.656216 168.833418,139.79609 C151.214686,145.933404 147.605863,171.24339 149.538878,175.46601 C157.221476,177.713895 163.012608,173.876589 171.304591,167.808553 C164.359981,164.933873 159.508647,153.523563 170.024487,139.400879" id="Fill-91" fill="#BD0E36"></path>
                        </g>
                    </g>
                    <text id="T&amp;C-Apply" font-family="Vi-Medium, Vi" font-size="5.997085" font-weight="400" line-spacing="6" fill="#2F3043">
                        <tspan x="212" y="219">T&amp;C Apply</tspan>
                    </text>
                </g>
            </g>
        </g>
    </g>
</svg>