<svg xmlns="http://www.w3.org/2000/svg" width="24" height="24" fill="none" viewBox="0 0 24 24">
    <mask id="32oh231lya" width="24" height="24" x="0" y="0" maskUnits="userSpaceOnUse">
        <path fill="#fff" d="M24 12c0-6.627-5.373-12-12-12S0 5.373 0 12s5.373 12 12 12 12-5.373 12-12z"/>
    </mask>
    <g mask="url(#32oh231lya)">
        <path fill="#2F3043" stroke="#F9E8D0" d="M24 12c0-6.627-5.373-12-12-12S0 5.373 0 12s5.373 12 12 12 12-5.373 12-12z"/>
    </g>
    <mask id="uqvkypuz9b" width="24" height="24" x="0" y="0" maskUnits="userSpaceOnUse">
        <path fill="#fff" d="M12 23.5c6.351 0 11.5-5.149 11.5-11.5S18.351.5 12 .5.5 5.649.5 12 5.649 23.5 12 23.5z"/>
    </mask>
    <g mask="url(#uqvkypuz9b)">
        <path fill="#fff" d="M12 23.5c6.351 0 11.5-5.149 11.5-11.5S18.351.5 12 .5.5 5.649.5 12 5.649 23.5 12 23.5z"/>
        <path fill="#B6D5FE" fill-rule="evenodd" d="M17.84 17.51l-2.53-9.768-7.267 1.882 2.53 9.769 7.266-1.882z" clip-rule="evenodd"/>
        <path fill="#B6D5FE" fill-rule="evenodd" d="M6.017 12.843l1.48 4.309c.229.655.92 1.027 1.593.856l1.055-.273-.259-.992-1.054.272c-.155.04-.314-.046-.366-.197l-1.48-4.308c-.03-.082-.022-.171.019-.248.04-.075.11-.13.192-.15l1.397-.362-.257-.993-1.397.361c-.36.093-.663.332-.839.66-.175.326-.207.711-.086 1.062l.002.003z" clip-rule="evenodd"/>
        <path fill="#B6D5FE" d="M17.694 17.549l-6.97 1.805c-.316.081-.505.403-.424.719.082.315.404.504.72.423l6.97-1.806c.315-.081.504-.403.423-.718-.082-.316-.404-.505-.72-.424z"/>
        <path fill="#EE2737" d="M11.826 9.258c.268.026.31-.551.31-.551l1.24-.086 1.408-.077 2.367 9.144-2.22.575-3.669.95-2.197-8.484s-.818-2.423-.404-2.53c.413-.108.817.46 3.165 1.059z"/>
        <path fill="#FFE65A" d="M10.146 11.93c-.272.043-.528-.143-.572-.416-.043-.273.143-.529.416-.572.273-.043.529.143.572.415.043.273-.143.53-.415.573zM12.52 13.668c-.272.043-.528-.143-.571-.415-.043-.273.143-.53.415-.573.273-.043.53.143.572.416.044.273-.142.529-.415.572zM11.794 16.524c-.272.043-.528-.143-.572-.416-.043-.272.143-.528.416-.572.273-.043.529.143.572.416.043.273-.143.529-.416.572zM12.486 15.094c-.136.022-.265-.072-.286-.208-.022-.136.071-.264.208-.286.136-.022.264.072.286.208.021.136-.072.264-.208.286zM14.969 12.52c-.273.043-.53-.143-.573-.415-.043-.273.143-.53.416-.573.273-.043.529.143.572.416.043.273-.143.529-.415.572zM13.177 12.383c-.545.086-1.058-.286-1.144-.831-.086-.546.286-1.058.831-1.145.546-.086 1.058.286 1.144.832.087.545-.285 1.057-.831 1.144zM15.746 17.476c-.545.087-1.058-.285-1.144-.83-.086-.546.286-1.059.831-1.145.546-.086 1.058.286 1.145.831.086.546-.286 1.058-.832 1.144z"/>
        <path fill="#F9E8D0" d="M12.349 5.035c-.546.087-1.058-.286-1.144-.831-.087-.546.285-1.058.83-1.144.546-.087 1.059.286 1.145.831.086.545-.286 1.058-.831 1.144zM7.191 7.833c-.545.087-1.058-.285-1.144-.83-.086-.546.286-1.059.831-1.145.546-.086 1.058.286 1.144.831.087.546-.285 1.058-.83 1.144z"/>
        <path fill="#F9E8D0" d="M7.566 8.345c.13-.164.296-.296.486-.383.265-.122.417-.404.374-.692-.079-.526.162-1.048.613-1.33.131-.08.23-.205.281-.35.166-.485.56-.857 1.052-.996.493-.138 1.023-.025 1.417.302.192.165.462.207.695.107.107-.047.219-.08.334-.101l.079-.013c.715-.087 1.39.349 1.606 1.036.063.216.229.386.443.453.63.198 1.04.802.994 1.46-.047.657-.539 1.197-1.19 1.304-.127.02-.24.092-.312.199-.071.107-.094.24-.062.365.055.209-.064.423-.27.487-.101.028-.21.014-.3-.038s-.157-.139-.183-.24l-.21-.818c-.038-.14-.134-.258-.264-.322-.13-.065-.282-.07-.416-.013l-.01.002c-.238.091-.37.346-.308.592l.49 1.891c.03.241-.123.468-.358.528-.236.061-.48-.062-.57-.288l-.42-1.626c-.025-.101-.096-.185-.19-.228-.096-.043-.205-.04-.298.007-.296.155-.643.182-.96.074-.15-.05-.317.01-.4.145-.26.409-.724.641-1.207.605-.483-.037-.907-.336-1.102-.78-.196-.442-.132-.957.166-1.338v-.001z"/>
    </g>
</svg>
